<svg height="464pt" viewBox="0 0 464 464.00005" width="464pt" xmlns="http://www.w3.org/2000/svg"><path d="m448 112h-336c-17.671875 0-32 14.328125-32 32v280c0 22.089844-17.910156 40-40 40h376c26.507812 0 48-21.492188 48-48v-288c0-8.835938-7.164062-16-16-16zm-32 296c0 4.417969-3.582031 8-8 8h-112c-4.417969 0-8-3.582031-8-8v-48c0-4.417969 3.582031-8 8-8h112c4.417969 0 8 3.582031 8 8zm0 0" fill="#ffe477"/><path d="m416 64v48h-304c-17.671875 0-32 14.328125-32 32v280c0 22.089844-17.910156 40-40 40-1.308594.003906-2.621094-.078125-3.921875-.238281-.078125 0-.078125.078125-.15625 0-20.40625-2.066407-35.9335938-19.253907-35.921875-39.761719v-392c0-17.671875 14.328125-32 32-32h164.480469c6.890625.015625 13.007812 4.425781 15.199219 10.960938l10.480468 31.597656c1.128906 3.238281 4.171875 5.417968 7.601563 5.441406h170.238281c8.824219.027344 15.972656 7.175781 16 16zm0 0" fill="#ffd422"/><path d="m296 352h112c4.417969 0 8 3.582031 8 8v48c0 4.417969-3.582031 8-8 8h-112c-4.417969 0-8-3.582031-8-8v-48c0-4.417969 3.582031-8 8-8zm0 0" fill="#ff9478"/></svg>