<?xml version="1.0" encoding="iso-8859-1"?>
<!-- Generator: Adobe Illustrator 19.0.0, SVG Export Plug-In . SVG Version: 6.00 Build 0)  -->
<svg version="1.1" id="Capa_1" xmlns="http://www.w3.org/2000/svg" xmlns:xlink="http://www.w3.org/1999/xlink" x="0px" y="0px"
	 viewBox="0 0 473.339 473.339" style="enable-background:new 0 0 473.339 473.339;" xml:space="preserve">
<rect x="161.437" y="161.437" style="fill:#D4E1F4;" width="150.988" height="150.988"/>
<path style="fill:#4DCFE0;" d="M378.775,94.563v284.212H94.563V94.563H378.775z M312.424,312.424V161.437H161.437v150.988H312.424z"
	/>
<g>
	<path style="fill:#3A2C51;" d="M312.424,328.098H161.437c-8.882,0-15.673-6.792-15.673-15.673V161.437
		c0-8.882,6.792-15.673,15.673-15.673h150.988c8.882,0,15.673,6.792,15.673,15.673v150.988
		C328.098,321.306,321.306,328.098,312.424,328.098z M177.11,296.751h119.641V177.11H177.11V296.751z"/>
	<path style="fill:#3A2C51;" d="M457.665,226.22c8.882,0,15.673-6.792,15.673-15.673s-6.792-15.673-15.673-15.673h-63.216v-21.42
		h63.216c8.882,0,15.673-6.792,15.673-15.673s-6.792-15.673-15.673-15.673h-63.216V94.563c0-8.882-6.792-15.673-15.673-15.673
		h-47.543V15.673C331.233,6.792,324.441,0,315.559,0s-15.673,6.792-15.673,15.673V78.89h-21.42V15.673
		C278.465,6.792,271.673,0,262.792,0c-8.882,0-15.673,6.792-15.673,15.673V78.89H226.22V15.673C226.22,6.792,219.429,0,210.547,0
		s-15.673,6.792-15.673,15.673V78.89h-21.42V15.673C173.453,6.792,166.661,0,157.78,0s-15.673,6.792-15.673,15.673V78.89H94.563
		c-8.882,0-15.673,6.792-15.673,15.673v47.543H15.673C6.792,142.106,0,148.898,0,157.78s6.792,15.673,15.673,15.673H78.89v21.42
		H15.673C6.792,194.873,0,201.665,0,210.547s6.792,15.673,15.673,15.673H78.89v20.898H15.673C6.792,247.118,0,253.91,0,262.792
		c0,8.882,6.792,15.673,15.673,15.673H78.89v21.42H15.673C6.792,299.886,0,306.678,0,315.559s6.792,15.673,15.673,15.673H78.89
		v47.543c0,8.882,6.792,15.673,15.673,15.673h47.543v63.216c0,8.882,6.792,15.673,15.673,15.673s15.673-6.792,15.673-15.673v-63.216
		h21.42v63.216c0,8.882,6.792,15.673,15.673,15.673s15.673-6.792,15.673-15.673v-63.216h20.898v63.216
		c0,8.882,6.792,15.673,15.673,15.673c8.882,0,15.673-6.792,15.673-15.673v-63.216h21.42v63.216c0,8.882,6.792,15.673,15.673,15.673
		s15.673-6.792,15.673-15.673v-63.216h47.543c8.882,0,15.673-6.792,15.673-15.673v-47.543h63.216
		c8.882,0,15.673-6.792,15.673-15.673c0-8.882-6.792-15.673-15.673-15.673h-63.216v-21.42h63.216
		c8.882,0,15.673-6.792,15.673-15.673c0-8.882-6.792-15.673-15.673-15.673h-63.216V226.22H457.665z M363.102,363.102H110.237
		V110.237h252.865V363.102z"/>
</g>
<g>
</g>
<g>
</g>
<g>
</g>
<g>
</g>
<g>
</g>
<g>
</g>
<g>
</g>
<g>
</g>
<g>
</g>
<g>
</g>
<g>
</g>
<g>
</g>
<g>
</g>
<g>
</g>
<g>
</g>
</svg>
